<?xml version="1.0" encoding="UTF-8" standalone="no"?>
<!-- Created with Inkscape (http://www.inkscape.org/) -->

<svg
   xmlns:dc="http://purl.org/dc/elements/1.1/"
   xmlns:cc="http://creativecommons.org/ns#"
   xmlns:rdf="http://www.w3.org/1999/02/22-rdf-syntax-ns#"
   xmlns:svg="http://www.w3.org/2000/svg"
   xmlns="http://www.w3.org/2000/svg"
   xmlns:xlink="http://www.w3.org/1999/xlink"
   xmlns:sodipodi="http://sodipodi.sourceforge.net/DTD/sodipodi-0.dtd"
   xmlns:inkscape="http://www.inkscape.org/namespaces/inkscape"
   width="210mm"
   height="297mm"
   viewBox="0 0 210 297"
   version="1.1"
   id="svg872"
   inkscape:version="0.92.4 (unknown)"
   sodipodi:docname="shag-final.svg"
   inkscape:export-filename="/home/ep/Pictures/shag-logo/shag-final.png"
   inkscape:export-xdpi="94.675148"
   inkscape:export-ydpi="94.675148">
  <defs
     id="defs866">
    <clipPath
       clipPathUnits="userSpaceOnUse"
       id="clipPath1506">
      <circle
         style="display:inline;opacity:1;fill:#ffffff;fill-opacity:1;stroke-width:0.29982799"
         id="circle1508"
         cx="112.8259"
         cy="150.62872"
         r="57.074402" />
    </clipPath>
    <clipPath
       clipPathUnits="userSpaceOnUse"
       id="clipPath1510">
      <circle
         style="display:inline;opacity:1;fill:#ffffff;fill-opacity:1;stroke-width:0.29982799"
         id="circle1512"
         cx="112.8259"
         cy="150.62872"
         r="57.074402" />
    </clipPath>
    <filter
       inkscape:collect="always"
       style="color-interpolation-filters:sRGB"
       id="filter1562"
       x="-0.0076432107"
       width="1.0152864"
       y="-0.027908328"
       height="1.0558167">
      <feGaussianBlur
         inkscape:collect="always"
         stdDeviation="0.093082171"
         id="feGaussianBlur1564" />
    </filter>
    <clipPath
       clipPathUnits="userSpaceOnUse"
       id="clipPath870">
      <circle
         r="77.45253"
         transform="rotate(-122.63774)"
         cy="13.776532"
         cx="-187.49365"
         id="circle872"
         style="display:inline;opacity:1;fill:#ffff23;fill-opacity:1;stroke-width:0.40688014" />
    </clipPath>
    <clipPath
       clipPathUnits="userSpaceOnUse"
       id="clipPath874">
      <circle
         r="77.45253"
         transform="rotate(-122.63774)"
         cy="13.776532"
         cx="-187.49365"
         id="circle876"
         style="display:inline;opacity:1;fill:#ffff23;fill-opacity:1;stroke-width:0.40688014" />
    </clipPath>
  </defs>
  <sodipodi:namedview
     id="base"
     pagecolor="#ffffff"
     bordercolor="#666666"
     borderopacity="1.0"
     inkscape:pageopacity="0.0"
     inkscape:pageshadow="2"
     inkscape:zoom="0.98994949"
     inkscape:cx="153.89324"
     inkscape:cy="515.08557"
     inkscape:document-units="mm"
     inkscape:current-layer="layer5"
     showgrid="false"
     inkscape:window-width="960"
     inkscape:window-height="1016"
     inkscape:window-x="0"
     inkscape:window-y="27"
     inkscape:window-maximized="0" />
  <metadata
     id="metadata869">
    <rdf:RDF>
      <cc:Work
         rdf:about="">
        <dc:format>image/svg+xml</dc:format>
        <dc:type
           rdf:resource="http://purl.org/dc/dcmitype/StillImage" />
        <dc:title></dc:title>
      </cc:Work>
    </rdf:RDF>
  </metadata>
  <g
     inkscape:groupmode="layer"
     id="layer3"
     inkscape:label="out"
     style="display:inline">
    <circle
       style="opacity:1;fill:#000000;fill-opacity:1;stroke-width:0.26458332"
       id="path1424"
       cx="62.949261"
       cy="177.16548"
       transform="matrix(-0.55222162,0.83369736,0.83369736,0.55222162,0,0)"
       r="80.414429" />
  </g>
  <g
     inkscape:groupmode="layer"
     id="layer4"
     inkscape:label="in"
     style="display:inline">
    <ellipse
       style="opacity:1;fill:#ffffff;fill-opacity:0;stroke-width:0.26458332"
       id="path1429"
       ry="44.979168"
       rx="46.49107"
       cy="146.94345"
       cx="106.40029" />
    <circle
       style="display:inline;opacity:1;fill:#ffffff;fill-opacity:1;stroke-width:0.40688014"
       id="path1424-3"
       cx="-187.49365"
       cy="13.776532"
       transform="rotate(-122.63774)"
       r="77.45253" />
  </g>
  <g
     inkscape:groupmode="layer"
     id="layer5"
     inkscape:label="stripes"
     style="display:inline">
    <rect
       y="95.00985"
       x="8.9467716"
       height="45.722084"
       width="198.2464"
       id="rect848"
       style="display:inline;opacity:1;fill:#ff0000;fill-opacity:0.627451;stroke:#000000;stroke-width:0;stroke-miterlimit:4;stroke-dasharray:none;stroke-opacity:1"
       clip-path="url(#clipPath874)" />
    <rect
       style="display:inline;opacity:1;fill:#ff0000;fill-opacity:0.627451;stroke:#000000;stroke-width:0;stroke-miterlimit:4;stroke-dasharray:none;stroke-opacity:1"
       id="rect846"
       width="198.2464"
       height="45.722084"
       x="11.025641"
       y="182.32236"
       clip-path="url(#clipPath870)" />
  </g>
  <g
     inkscape:groupmode="layer"
     id="layer6"
     inkscape:label="text"
     style="display:inline">
    <flowRoot
       xml:space="preserve"
       id="flowRoot1534"
       style="font-style:normal;font-weight:normal;font-size:40px;line-height:1.25;font-family:sans-serif;letter-spacing:0px;word-spacing:0px;fill:#000000;fill-opacity:1;stroke:none"
       transform="scale(0.26458333)"><flowRegion
         id="flowRegion1536"><rect
           id="rect1538"
           width="417.63376"
           height="118.16549"
           x="225.26402"
           y="294.19461" /></flowRegion><flowPara
         id="flowPara1540" /></flowRoot>    <text
       xml:space="preserve"
       style="font-style:normal;font-variant:normal;font-weight:bold;font-stretch:normal;font-size:19.93915939px;line-height:1.25;font-family:'DejaVu Sans';-inkscape-font-specification:'DejaVu Sans, Bold';font-variant-ligatures:normal;font-variant-caps:normal;font-variant-numeric:normal;font-feature-settings:normal;text-align:start;letter-spacing:0px;word-spacing:0px;writing-mode:lr-tb;text-anchor:start;fill:#000003;fill-opacity:1;stroke:none;stroke-width:0.26458332;filter:url(#filter1562)"
       id="text1544"
       transform="matrix(0.92279337,0,0,0.99573118,8.5209773,20.124527)"><textPath
         xlink:href="#path1424-6"
         id="textPath2366">BRNO</textPath></text>
    <text
       xml:space="preserve"
       style="font-style:normal;font-variant:normal;font-weight:bold;font-stretch:normal;font-size:21.16666603px;line-height:1.25;font-family:'DejaVu Sans';-inkscape-font-specification:'DejaVu Sans, Bold';font-variant-ligatures:normal;font-variant-caps:normal;font-variant-numeric:normal;font-feature-settings:normal;text-align:start;letter-spacing:0.015875px;word-spacing:0px;writing-mode:lr-tb;text-anchor:start;fill:#000002;fill-opacity:1;stroke:none;stroke-width:0.47219321"
       id="text1610"
       transform="matrix(0.9757078,0,0,1.0194331,2.484372,-12.648076)"><textPath
         xlink:href="#path1424"
         id="textPath1612"
         style="letter-spacing:1.68804169px;fill:#000002;fill-opacity:1">shag.cz<tspan
   style="letter-spacing:1.68804169px;fill:#000002;fill-opacity:1;stroke-width:0.47219321"
   id="tspan1606"
   y="221.41226"
   x="68.772804" /></textPath></text>
    <circle
       style="display:inline;opacity:1;fill:#000000;fill-opacity:0.00414937;stroke-width:0.26458332"
       id="path1424-6"
       cx="-181.28297"
       cy="49.801022"
       transform="rotate(-111.47909)"
       r="80.414429" />
  </g>
  <g
     inkscape:label="silhouette"
     inkscape:groupmode="layer"
     id="layer1"
     style="display:inline">
    <path
       d="m 134.74253,99.89086 c 1.10082,-0.347642 2.30425,-0.08812 3.33024,0.3778 0.64698,0.38988 1.43035,0.70492 1.79851,1.40863 0.0833,0.0495 0.16777,0.0965 0.25347,0.14364 0.17382,0.45022 0.62525,0.73268 0.70493,1.22636 0.0653,0.42007 0.36573,0.74595 0.47437,1.15152 0.28486,0.90288 0.35487,1.90956 0.0386,2.81243 -0.51541,0.81839 -0.90046,1.71161 -1.45812,2.50222 0.0265,0.19796 0.2716,0.34159 0.17864,0.56007 -0.11949,0.36574 -0.38143,0.65905 -0.59386,0.97168 -0.22934,0.32228 -0.28124,0.73389 -0.50937,1.05737 -0.25952,0.34281 -0.47679,0.74475 -0.89202,0.92099 -0.42972,0.38142 -0.72303,0.89563 -1.04652,1.36758 -0.35728,0.51903 -0.88235,0.91736 -1.15996,1.49192 -0.17624,0.54438 -0.23176,1.12135 -0.26918,1.68867 0.10862,0.21243 0.30176,0.36452 0.4623,0.53592 1.19861,1.14308 2.24511,2.43341 3.27956,3.72255 0.39229,0.75199 1.07669,1.33741 1.33621,2.16061 0.0194,0.64457 0.10862,1.30362 -0.064,1.93611 -0.21727,0.74475 -0.22451,1.54141 -0.53473,2.26082 -0.32468,0.66628 -0.45144,1.41224 -0.85338,2.04595 -0.6349,1.44845 -1.22395,2.91984 -1.94696,4.32847 -0.42007,0.71699 -0.77614,1.46899 -1.19861,2.18477 -1.54744,2.1908 -3.20592,4.33209 -5.24585,6.09198 -0.39229,0.39591 -0.7894,0.83166 -1.35913,0.95478 -0.076,0.30418 -0.11109,0.61922 -0.0144,0.9246 0.18468,0.24744 0.44901,0.4454 0.55283,0.74717 -0.0314,0.27158 -0.23779,0.55402 -0.0736,0.81716 0.22209,0.44178 0.32351,0.92702 0.443,1.40381 0.25589,0.71216 0.43211,1.45691 0.48282,2.21253 0.16415,0.61558 0.27882,1.24324 0.35849,1.87575 0.0411,0.44418 0.49851,0.64817 0.74476,0.97167 0.28727,0.39471 0.7037,0.66146 0.9958,1.05134 0.44299,0.40678 1.026,0.60594 1.55711,0.86667 0.37297,0.30296 0.74716,0.63129 0.97047,1.06703 0.14242,0.28848 0.43212,0.47437 0.55161,0.77492 0.3078,0.76045 0.56732,1.55349 1.04772,2.22823 0.21124,0.28244 -0.0821,0.65542 0.12312,0.94149 0.1726,0.30056 0.25951,0.63612 0.38626,0.95719 0.3609,0.204 0.81114,0.26193 1.11168,0.57215 0.46109,0.50575 0.29211,1.24205 0.30298,1.86368 0.40074,0.90287 1.0779,1.6428 1.7985,2.30546 0.56249,0.68923 1.22034,1.30603 1.68143,2.07372 0.54559,0.81838 1.16841,1.58486 1.6609,2.43824 0.36815,0.51179 0.70975,1.04169 1.09237,1.54382 0.0603,0.0965 0.16538,0.15089 0.28246,0.14242 0.017,0.26919 0.22934,0.46472 0.35608,0.68803 0.42247,0.69043 1.02358,1.2481 1.45087,1.9349 0.17623,0.29573 0.47558,0.49368 0.65665,0.78821 0.36573,0.583 0.81957,1.10083 1.2348,1.64762 0.38264,0.79062 1.19015,1.2312 1.73815,1.88904 0.33918,0.57092 0.59025,1.18894 0.70251,1.84438 0.33435,0.33676 0.82804,0.26675 1.24446,0.40797 0.40195,0.14123 0.8377,0.0398 1.2469,0.16898 9.2e-4,-0.0736 0.002,-0.21847 0.002,-0.29089 0.23175,0.11588 0.49368,0.16175 0.73388,0.0362 0.45386,-0.21486 0.98859,-0.0101 1.42674,-0.26917 0.78217,-0.39953 1.2312,-1.20103 1.82506,-1.8154 0.56006,-0.47437 1.40018,-0.6651 2.04352,-0.23297 0.28608,0.86546 -0.1569,1.72246 -0.35606,2.55533 -0.0808,0.34642 -0.43332,0.67111 -0.32229,1.03443 -0.27641,0.24745 -0.38142,0.62286 -0.58662,0.9246 -0.84253,1.16119 -1.85041,2.18839 -2.73277,3.3194 -0.24744,0.31263 -0.54075,0.58542 -0.81837,0.87149 0.23416,0.18105 0.41643,0.41523 0.59387,0.6518 -0.89443,1.52934 -1.91076,3.0297 -3.30852,4.14382 -0.55284,-0.49853 -1.16723,-0.92341 -1.8299,-1.26017 -0.59628,-0.52506 -1.0441,-1.19016 -1.57762,-1.77557 -0.40797,0.26796 -0.78578,0.61801 -1.29877,0.64577 -0.55646,-0.31142 -0.56249,-1.00547 -0.93667,-1.46174 -0.57215,-0.76286 -1.05375,-1.58606 -1.63436,-2.33926 -0.37057,-0.71337 -0.79182,-1.45691 -1.48105,-1.90714 -0.25831,-0.20037 -0.32953,-0.54317 -0.54679,-0.77735 -0.41764,-0.46712 -0.81114,-0.9584 -1.29516,-1.35914 -0.4949,-0.55524 -1.00066,-1.10324 -1.44485,-1.69952 -0.6687,-0.8558 -1.45087,-1.61504 -2.07734,-2.50343 -0.88476,-1.23359 -2.01093,-2.27045 -2.88122,-3.51371 -0.65059,-0.91495 -1.32776,-1.80576 -2.00492,-2.70018 -0.43574,-0.5323 -0.79545,-1.12859 -1.29515,-1.60539 -0.22452,-0.23899 -0.4092,-0.51058 -0.62043,-0.75801 -0.0941,0.23296 -0.29331,0.46109 -0.23175,0.72906 0.0603,0.34642 0.15209,0.7025 0.0615,1.05375 -0.13881,0.6844 -0.6156,1.21792 -0.98978,1.78281 -0.15693,0.37659 0.28124,0.66267 0.2221,1.0429 -0.14606,1.33862 -0.64095,2.60722 -1.10929,3.86134 -0.34521,1.36278 -0.86303,2.67242 -1.26618,4.01829 -0.57457,1.30602 -1.16964,2.60602 -1.62953,3.95911 -0.20883,0.61923 -0.60714,1.16602 -0.73991,1.81058 -0.0856,0.84495 -0.21487,1.68504 -0.37178,2.51913 -0.10864,0.5504 -0.3935,1.04891 -0.78941,1.44483 0.31504,0.3778 0.33676,0.85701 0.32349,1.32654 0.29693,0.52025 0.45385,1.22637 1.05134,1.48709 0.27038,0.17503 0.45265,0.46471 0.7532,0.60233 0.26555,0.12672 0.4104,0.40315 0.65905,0.55523 0.25711,0.18468 0.58422,0.27884 0.79061,0.5299 0.51179,0.67112 1.44121,0.87752 1.88422,1.61502 0.0893,0.35368 0.19312,0.71338 0.18829,1.08394 -0.38143,0.18831 -0.75561,0.41524 -1.19498,0.42851 -1.6259,0.21124 -3.23128,-0.274 -4.77147,-0.72906 -0.49851,-0.23417 -1.03444,-0.42488 -1.4545,-0.7882 -1.4738,-0.95961 -3.32905,-0.80269 -4.90544,-1.49314 -0.21607,-0.082 -0.33074,-0.28002 -0.32109,-0.50574 -0.0542,-0.88115 -0.29451,-1.75143 -0.23054,-2.63741 0.19312,-0.86304 0.35849,-1.73331 0.41884,-2.61568 0.15571,-0.5673 0.0653,-1.15755 0.12312,-1.73452 0.15089,-0.48525 0.44661,-0.91496 0.55163,-1.41587 0.11466,-0.4792 0.32952,-0.93064 0.42368,-1.41587 0.15329,-0.8715 0.32951,-1.74298 0.64696,-2.57103 0.16659,-0.59386 0.29333,-1.19738 0.5118,-1.77557 0.29814,-1.53657 0.78458,-3.02608 1.21188,-4.53006 0.082,-0.58542 0.42006,-1.10565 0.44781,-1.69953 0.0301,-0.29814 0.023,-0.5999 0.0869,-0.89322 0.24262,-0.56368 0.81235,-0.892 1.096,-1.42794 0.18709,-0.53109 -0.56732,-0.95598 -0.31263,-1.49191 0.23537,-0.50213 0.53232,-0.9765 0.70129,-1.50761 0.16174,-0.50938 0.5311,-0.91132 0.73027,-1.40259 -0.24743,-0.21486 -0.52024,-0.41522 -0.69887,-0.69284 -0.20762,-0.48162 -0.25228,-1.01031 -0.34643,-1.51969 -0.0978,-0.53109 0.12915,-1.0465 0.11109,-1.57398 -0.12554,-0.4285 -0.27158,-0.8558 -0.50213,-1.23964 -0.59146,-1.01997 -1.03202,-2.13286 -1.26258,-3.28922 -0.0881,-0.35366 0.0121,-0.79787 -0.31746,-1.04651 -1.02478,-0.86786 -2.11112,-1.66211 -3.1166,-2.55169 -1.31689,-1.08999 -2.65068,-2.17271 -3.80945,-3.43407 -0.37299,-0.43817 -0.98615,-0.61923 -1.2674,-1.14066 -0.29573,-0.43092 -0.56611,-0.90289 -0.99823,-1.21069 0.45385,1.85283 0.97409,3.68997 1.48708,5.52709 0.42368,1.08274 0.65422,2.22581 1.04048,3.32182 0.33678,1.25653 0.87028,2.45514 1.10084,3.73943 0.11466,0.72906 0.40074,1.42674 0.41161,2.1727 -0.62526,0.41643 -1.35674,0.62887 -2.10512,0.64817 -0.64938,0.17504 -1.3193,0.22089 -1.98921,0.18348 0.19916,1.09358 0.35367,2.19442 0.58542,3.28197 -0.48644,0.53714 -1.1962,0.75561 -1.8661,0.96323 -1.72005,0.51058 -3.47872,0.86907 -5.21568,1.31206 -0.92699,0.20037 -1.84436,0.46713 -2.7931,0.53593 -0.0398,0.36574 -0.20882,0.73751 -0.12795,1.10686 0.80752,1.61987 1.54261,3.30008 1.94095,5.07446 0.35244,0.85941 0.53834,1.78281 0.60834,2.7074 0.21485,1.30965 -0.0592,2.63137 -0.0556,3.94705 0.035,0.57335 -0.0229,1.15275 0.0689,1.72489 0.2209,1.4207 0.0579,2.90415 0.5794,4.27054 0.0664,0.37539 0.36331,0.62887 0.50454,0.96926 0.19192,0.73268 0.36574,1.47139 0.49007,2.21855 -0.0736,0.40558 0.0857,0.99944 -0.43455,1.14671 -0.79786,0.27158 -1.64279,0.39108 -2.47204,0.53229 -1.00064,0.093 -1.93612,0.47559 -2.90055,0.73028 -0.84614,0.3404 -1.752639,0.478 -2.642228,0.65181 -0.598695,0.0519 -1.205841,0.0496 -1.788852,0.21606 -0.50334,-0.0229 -1.032026,-0.0121 -1.473811,-0.2921 -0.02892,-0.20279 -9.09e-4,-0.42972 -0.119502,-0.60715 -0.269157,-0.37056 -0.325893,-0.94753 -0.02298,-1.31206 0.568528,-0.26677 1.191369,-0.43938 1.6597,-0.87631 0.730269,-0.0772 1.417075,-0.35368 2.05681,-0.70855 0.369367,-0.12553 0.568528,-0.513 0.940294,-0.63128 0.302979,-0.0929 0.674749,-0.0254 0.895639,-0.30058 0.56489,-0.41884 0.76044,-1.11048 1.10807,-1.68865 0.24744,-0.34763 0.0121,-0.79906 0.22209,-1.16963 -0.26313,-0.35126 -0.31746,-0.78699 -0.47195,-1.18411 -0.39712,-0.82563 -0.42006,-1.76592 -0.74354,-2.61569 -0.53232,-1.48587 -1.32414,-2.87036 -1.794893,-4.38039 -0.35246,-1.15876 -0.843716,-2.27649 -1.083929,-3.46664 -0.148468,-0.65302 -0.170194,-1.32173 -0.324694,-1.97112 -0.143637,-0.64094 0.162953,-1.40621 -0.281242,-1.95059 -0.631283,-0.0954 -1.258955,-0.24744 -1.896281,-0.29574 -0.847348,0.0869 -1.694697,-0.0193 -2.543245,0 -0.344008,0.20763 -0.401955,0.66026 -0.655429,0.95479 -0.357293,0.4285 -0.645778,0.91977 -1.076689,1.28309 0.02175,0.0278 0.0676,0.0833 0.09047,0.1111 -0.120701,0.0338 -0.217265,0.10256 -0.289695,0.2052 -0.685597,0.80873 -1.456906,1.54744 -2.322359,2.16181 -1.552261,1.36639 -3.376122,2.38757 -4.980297,3.69359 -0.532308,0.34884 -1.056162,0.71215 -1.529335,1.13824 -0.11949,0.12071 -0.295716,0.13882 -0.449016,0.19314 0.0078,0.0736 0.01446,0.14966 0.02175,0.22693 -0.925797,0.43574 -1.519671,1.3205 -2.119577,2.11353 -0.222097,0.31505 -0.561274,0.69527 -0.325904,1.0924 -0.445405,0.76767 -0.869074,1.54863 -1.374836,2.27769 -0.15571,0.4273 -0.564895,0.74233 -1.030815,0.70251 -0.679566,-0.14606 -1.278271,-0.50938 -1.886629,-0.82443 -0.789413,-0.28124 -1.426727,-0.84734 -2.17148,-1.2167 -1.114107,-0.62163 -2.071294,-1.47622 -3.152813,-2.15096 -0.525066,-0.44178 -1.068247,-0.87029 -1.51002,-1.39776 -1.00306,-0.96202 -2.045949,-1.94698 -2.661548,-3.21317 -0.228129,-0.71336 0.300557,-1.49675 0.994606,-1.69712 0.42368,0.0291 0.754416,0.30539 1.04169,0.59266 0.610768,0.61682 1.468979,0.93185 2.041116,1.59089 0.624041,0.0229 1.246882,0.17744 1.870934,0.0507 0.480404,-0.12917 0.964428,0.14966 1.440012,-0.0301 0.440574,-0.16897 0.972881,0.24263 1.354309,-0.1207 0.01121,0.0555 0.03015,0.16416 0.04103,0.2197 0.476782,-0.0592 0.984954,0.0592 1.437601,-0.14244 1.054962,-0.39351 2.09061,-0.8908 2.948822,-1.63072 1.017542,-0.74114 1.887827,-1.65608 2.82571,-2.48894 0.948745,-1.15758 1.89869,-2.326 2.679652,-3.60306 0.342798,-0.39108 0.551622,-0.87148 0.859422,-1.28672 0.487646,-0.7375 1.004259,-1.45449 1.520872,-2.17027 0.07365,-1.15514 0.644578,-2.19804 1.260165,-3.14918 0.178647,-0.3742 0.551623,-0.62888 0.65664,-1.03928 0.342799,-0.89805 0.575759,-1.84197 1.053753,-2.68207 0.636113,-1.49555 1.435179,-2.9102 2.163039,-4.35987 0.292094,-0.618 0.81597,-1.15997 0.830443,-1.87576 0.171405,-1.4569 0.365734,-2.91139 0.446616,-4.37797 0.224508,-1.78644 0.392291,-3.58493 0.789415,-5.34482 0.168983,-0.69043 0.201571,-1.41707 0.497297,-2.07251 -1.00668,-0.10626 -2.012161,0.0785 -3.02004,0.0689 -0.430911,-0.0255 -0.85338,0.24504 -1.27706,0.082 -0.445405,-0.17623 -0.704922,-0.5975 -0.955987,-0.97771 -0.42368,-0.66025 -0.940293,-1.26016 -1.292743,-1.96507 -0.4273,-0.8196 -1.034447,-1.55108 -1.315691,-2.44188 -0.259516,-0.76044 -0.446604,-1.54141 -0.694059,-2.30425 -0.43332,-1.46899 -1.227567,-2.81605 -1.506399,-4.33091 -0.161742,-0.96201 -0.323483,-1.9349 -0.293305,-2.91381 0.09775,-1.12618 0.905284,-2.02424 1.749011,-2.69897 0.627662,-0.24744 1.058583,-0.80028 1.450875,-1.32534 0.237791,-0.53111 0.132775,-1.13221 0.239002,-1.68866 0.08329,-0.4092 0.622842,-0.40195 0.808719,-0.68561 -0.175026,-0.77855 -0.805098,-1.30482 -1.245683,-1.93007 -0.188288,-0.3235 -0.580578,-0.38988 -0.875105,-0.57697 -0.414017,-0.21486 -0.674733,-0.62406 -1.068236,-0.86546 -0.608357,-0.38142 -1.050142,-0.96684 -1.639184,-1.37241 -0.286063,-0.19917 -0.54076,-0.4454 -0.745953,-0.72543 -0.267958,-0.38989 -0.217276,-0.90892 -0.511792,-1.28311 -0.724226,-0.8739 -0.589042,-2.08698 -0.631282,-3.14436 -0.06883,-0.50335 0.101341,-0.991 0.261928,-1.45932 0.138816,-0.41282 0.05672,-0.88961 0.3066,-1.2662 0.241401,-0.35367 0.602315,-0.60835 0.825612,-0.97651 0.207613,-0.34038 0.610768,-0.47437 0.960818,-0.618 1.636752,-0.69164 3.636839,-0.50215 5.082893,0.54438 0.638525,0.56489 1.330164,1.10444 1.756254,1.85885 0.325903,0.63853 0.795445,1.21066 0.943913,1.92766 0.330725,0.77131 0.125533,1.61503 0.107394,2.42256 0.300569,0.21846 0.604749,0.54196 1.010313,0.50212 0.837685,-0.0615 1.682623,-0.16173 2.47687,-0.44902 0.81717,-0.19675 1.78161,-0.28728 2.472038,0.29573 0.46592,0.40678 0.484025,1.09238 0.308999,1.64522 1.046521,-0.28487 2.103894,0.0542 3.137122,0.23174 1.17447,0.39471 2.1884,1.15877 3.35079,1.59331 1.13583,0.29694 2.30305,0.4961 3.47872,0.49851 0.24141,-0.0254 0.50575,-0.0713 0.68199,-0.25468 0.53714,-0.48402 0.8582,-1.14429 1.32774,-1.68626 0.4611,-0.46833 0.86787,-0.98616 1.3483,-1.43639 1.25049,-1.08031 2.33684,-2.33081 3.51129,-3.49079 0.88236,-1.16359 2.10147,-2.0375 3.44976,-2.58066 0.31022,-0.12554 0.69164,-0.18106 0.87753,-0.4949 0.73871,-0.10739 1.47381,0.0241 2.1908,0.21244 1.78039,-0.31866 3.44491,0.60595 5.19152,0.74233 0.4973,0.002 1.02357,0.31987 1.48467,-9.1e-4 0.45868,-0.35245 1.04167,-0.57335 1.37241,-1.07064 0.0965,-0.39954 0.1726,-0.8039 0.35126,-1.1793 0.19794,-0.40677 -0.0748,-0.81234 -0.16657,-1.20583 -0.0291,-0.65062 0.24261,-1.25775 0.2909,-1.89991 0.0568,-0.45385 0.23778,-0.89442 0.54317,-1.23723 0.15449,-0.018 0.31021,-0.0157 0.46712,0.008 0.0101,-0.72907 0.25469,-1.43157 0.53472,-2.09665 0.13761,-0.32229 0.1183,-0.67837 0.1871,-1.01513 0.2064,-0.45144 0.5492,-0.81958 0.88598,-1.17688 0.3259,-0.33073 0.43936,-0.8401 0.85941,-1.08513 0.55162,-0.23296 1.14067,-0.35488 1.7273,-0.468339 m -21.54223,23.821139 c -0.36695,0.37901 -0.69044,0.79545 -1.02841,1.1998 -0.39591,0.43695 -0.43214,1.06582 -0.74959,1.54866 -0.26554,0.32709 -0.7387,0.32709 -1.12495,0.33675 -0.3078,0.48644 -0.81235,0.79425 -1.12981,1.27102 -0.20882,0.31867 -0.60957,0.43455 -0.81356,0.75442 -0.36814,0.51542 -0.87027,0.93667 -1.12254,1.52933 -0.53473,1.10686 -1.32415,2.05441 -2.03992,3.04297 0.30417,0.62646 0.49489,1.30241 0.56489,1.99406 0.20883,0.52748 0.61318,1.02599 0.54077,1.62468 -0.0121,0.30781 -0.25952,0.52749 -0.3754,0.79907 0.21244,0.12674 0.41523,0.2716 0.5818,0.45626 0.88598,-0.35004 1.79609,0.36333 2.70378,0.0676 -0.10739,-0.15572 -0.21604,-0.31022 -0.31986,-0.46715 0.31626,-0.46712 0.65784,-0.91734 0.96082,-1.39413 0.14484,-0.38384 0.19554,-0.79424 0.28003,-1.19377 0.25349,-1.31085 0.66027,-2.5843 0.94391,-3.88671 0.23055,-0.93063 0.84857,-1.70194 1.10084,-2.62292 0.40797,-0.892 0.72663,-1.82265 1.17686,-2.69533 0.39713,-0.61439 0.28849,-1.37726 0.43214,-2.06769 -0.20521,-0.076 -0.39712,-0.18106 -0.5818,-0.29693 m -11.73738,1.90472 c 0.27279,0.5987 0.50092,1.21309 0.69164,1.84317 0.56371,-0.48162 1.08635,-1.01151 1.61746,-1.52812 -0.78096,-0.0169 -1.54261,-0.18347 -2.3091,-0.31505"
       style="fill:#000000;fill-opacity:1;fill-rule:nonzero;stroke:none;stroke-width:0.12070505"
       id="path827"
       inkscape:connector-curvature="0" />
  </g>
</svg>
